<svg xmlns="http://www.w3.org/2000/svg" viewBox="0 0 720 400" width="720" height="400">
<defs><linearGradient id="sh" x1="0" y1="0" x2="1" y2="0"><stop offset="0" stop-color="#ffffff" stop-opacity="0"/><stop offset="0.5" stop-color="#ffffff" stop-opacity="0.6"/><stop offset="1" stop-color="#ffffff" stop-opacity="0"/></linearGradient></defs>
<style>
    @keyframes shimmer { 0% { transform: translateX(-1400px); } 100% { transform: translateX(1400px); } }
    @keyframes fadein { from { opacity: 0; } to { opacity: 1; } }
    .fade { opacity: 0; animation: fadein .4s ease-out forwards; }
    .shine { opacity: 0; animation: shimmer 2.4s ease-in-out 4.6s forwards; }
    </style>
<text x="24.0" y="40.0" font-family="ui-monospace, 'JetBrains Mono', 'DejaVu Sans Mono', Menlo, Consolas, monospace" font-size="14" fill="#6e7681" text-anchor="start">06 /</text><g><path transform="translate(84.0,40) scale(1,-1)" d="M303 -14Q231 -14 172.5 16.0Q114 46 80.0 103.0Q46 160 46 241V255Q46 336 80.0 393.0Q114 450 172.5 480.0Q231 510 303 510Q374 510 425.0 485.0Q476 460 507.5 416.5Q539 373 549 318L427 292Q423 322 409.0 346.0Q395 370 369.5 384.0Q344 398 306 398Q268 398 237.5 381.5Q207 365 189.5 332.5Q172 300 172 253V243Q172 196 189.5 163.5Q207 131 237.5 114.5Q268 98 306 98Q363 98 392.5 127.5Q422 157 430 205L552 176Q539 123 507.5 79.5Q476 36 425.0 11.0Q374 -14 303 -14Z" fill="#bc8cff"/><path transform="translate(100.884,40) scale(1,-1)" d="M306 -14Q232 -14 173.0 16.0Q114 46 80.0 103.0Q46 160 46 240V256Q46 336 80.0 393.0Q114 450 173.0 480.0Q232 510 306 510Q380 510 439.0 480.0Q498 450 532.0 393.0Q566 336 566 256V240Q566 160 532.0 103.0Q498 46 439.0 16.0Q380 -14 306 -14ZM306 98Q364 98 402.0 135.5Q440 173 440 243V253Q440 323 402.5 360.5Q365 398 306 398Q248 398 210.0 360.5Q172 323 172 253V243Q172 173 210.0 135.5Q248 98 306 98Z" fill="#bc8cff"/><path transform="translate(118.244,40) scale(1,-1)" d="M70 0V496H194V431H212Q224 457 257.0 480.5Q290 504 357 504Q415 504 458.5 477.5Q502 451 526.0 404.5Q550 358 550 296V0H424V286Q424 342 396.5 370.0Q369 398 318 398Q260 398 228.0 359.5Q196 321 196 252V0Z" fill="#bc8cff"/><path transform="translate(135.38,40) scale(1,-1)" d="M152 0V392H26V496H152V588Q152 639 182.5 669.5Q213 700 262 700H392V596H306Q278 596 278 566V496H408V392H278V0Z" fill="#bc8cff"/><path transform="translate(147.812,40) scale(1,-1)" d="M70 0V496H196V0ZM133 554Q99 554 75.5 576.0Q52 598 52 634Q52 670 75.5 692.0Q99 714 133 714Q168 714 191.0 692.0Q214 670 214 634Q214 598 191.0 576.0Q168 554 133 554Z" fill="#bc8cff"/><path transform="translate(154.42000000000002,40) scale(1,-1)" d="M46 246V262Q46 340 77.0 395.5Q108 451 159.5 480.5Q211 510 272 510Q340 510 375.0 486.0Q410 462 426 436H444V496H568V-88Q568 -139 538.0 -169.5Q508 -200 458 -200H126V-90H414Q442 -90 442 -60V69H424Q414 53 396.0 36.5Q378 20 348.0 9.0Q318 -2 272 -2Q211 -2 159.5 27.5Q108 57 77.0 112.5Q46 168 46 246ZM308 108Q366 108 405.0 145.0Q444 182 444 249V259Q444 327 405.5 363.5Q367 400 308 400Q250 400 211.0 363.5Q172 327 172 259V249Q172 182 211.0 145.0Q250 108 308 108Z" fill="#bc8cff"/><path transform="translate(172.452,40) scale(1,-1)" d="M259 -8Q201 -8 157.5 18.5Q114 45 90.0 92.0Q66 139 66 200V496H192V210Q192 154 219.5 126.0Q247 98 298 98Q356 98 388.0 136.5Q420 175 420 244V496H546V0H422V65H404Q392 40 359.0 16.0Q326 -8 259 -8Z" fill="#bc8cff"/><path transform="translate(189.56,40) scale(1,-1)" d="M70 0V496H194V440H212Q223 470 248.5 484.0Q274 498 308 498H368V386H306Q258 386 227.0 360.5Q196 335 196 282V0Z" fill="#bc8cff"/><path transform="translate(199.892,40) scale(1,-1)" d="M224 -14Q171 -14 129.0 4.5Q87 23 62.5 58.5Q38 94 38 145Q38 196 62.5 230.5Q87 265 130.5 282.5Q174 300 230 300H366V328Q366 363 344.0 385.5Q322 408 274 408Q227 408 204.0 386.5Q181 365 174 331L58 370Q70 408 96.5 439.5Q123 471 167.5 490.5Q212 510 276 510Q374 510 431.0 461.0Q488 412 488 319V134Q488 104 516 104H556V0H472Q435 0 411.0 18.0Q387 36 387 66V67H368Q364 55 350.0 35.5Q336 16 306.0 1.0Q276 -14 224 -14ZM246 88Q299 88 332.5 117.5Q366 147 366 196V206H239Q204 206 184.0 191.0Q164 176 164 149Q164 122 185.0 105.0Q206 88 246 88Z" fill="#bc8cff"/><path transform="translate(215.964,40) scale(1,-1)" d="M260 0Q211 0 180.5 30.5Q150 61 150 112V392H26V496H150V650H276V496H412V392H276V134Q276 104 304 104H400V0Z" fill="#bc8cff"/><path transform="translate(228.9,40) scale(1,-1)" d="M70 0V496H196V0ZM133 554Q99 554 75.5 576.0Q52 598 52 634Q52 670 75.5 692.0Q99 714 133 714Q168 714 191.0 692.0Q214 670 214 634Q214 598 191.0 576.0Q168 554 133 554Z" fill="#bc8cff"/><path transform="translate(235.508,40) scale(1,-1)" d="M306 -14Q232 -14 173.0 16.0Q114 46 80.0 103.0Q46 160 46 240V256Q46 336 80.0 393.0Q114 450 173.0 480.0Q232 510 306 510Q380 510 439.0 480.0Q498 450 532.0 393.0Q566 336 566 256V240Q566 160 532.0 103.0Q498 46 439.0 16.0Q380 -14 306 -14ZM306 98Q364 98 402.0 135.5Q440 173 440 243V253Q440 323 402.5 360.5Q365 398 306 398Q248 398 210.0 360.5Q172 323 172 253V243Q172 173 210.0 135.5Q248 98 306 98Z" fill="#bc8cff"/><path transform="translate(252.868,40) scale(1,-1)" d="M70 0V496H194V431H212Q224 457 257.0 480.5Q290 504 357 504Q415 504 458.5 477.5Q502 451 526.0 404.5Q550 358 550 296V0H424V286Q424 342 396.5 370.0Q369 398 318 398Q260 398 228.0 359.5Q196 321 196 252V0Z" fill="#bc8cff"/></g><rect x="24" y="48" width="192" height="3" rx="1.5" fill="#bc8cff" opacity="0"><animate attributeName="opacity" values="0;1" dur="0.4s" begin="0.9s" fill="freeze"/></rect><rect x="24" y="64" width="672" height="308" rx="12" fill="#0a0d12" stroke="#30363d" stroke-width="1.2"/><text x="40.0" y="92.0" font-family="ui-monospace, 'JetBrains Mono', 'DejaVu Sans Mono', Menlo, Consolas, monospace" font-size="13" fill="#6e7681" text-anchor="start"># ~/.config/ins/config.toml</text><text x="40.0" y="114.0" font-family="ui-monospace, 'JetBrains Mono', 'DejaVu Sans Mono', Menlo, Consolas, monospace" font-size="13" fill="#f0883e" font-weight="700" text-anchor="start">[sources]</text><text x="40.0" y="136.0" font-family="ui-monospace, 'JetBrains Mono', 'DejaVu Sans Mono', Menlo, Consolas, monospace" font-size="13" fill="#58a6ff" text-anchor="start">priority</text><text x="102.4" y="136.0" font-family="ui-monospace, 'JetBrains Mono', 'DejaVu Sans Mono', Menlo, Consolas, monospace" font-size="13" fill="#d29922" text-anchor="start"> = ["apt", "flatpak", "dnf", "pacman", "zypper", "snap", "nix", "apk"]</text><text x="40.0" y="180.0" font-family="ui-monospace, 'JetBrains Mono', 'DejaVu Sans Mono', Menlo, Consolas, monospace" font-size="13" fill="#f0883e" font-weight="700" text-anchor="start">[cache]</text><text x="40.0" y="202.0" font-family="ui-monospace, 'JetBrains Mono', 'DejaVu Sans Mono', Menlo, Consolas, monospace" font-size="13" fill="#58a6ff" text-anchor="start">enabled</text><text x="94.6" y="202.0" font-family="ui-monospace, 'JetBrains Mono', 'DejaVu Sans Mono', Menlo, Consolas, monospace" font-size="13" fill="#d29922" text-anchor="start"> = true</text><text x="40.0" y="224.0" font-family="ui-monospace, 'JetBrains Mono', 'DejaVu Sans Mono', Menlo, Consolas, monospace" font-size="13" fill="#58a6ff" text-anchor="start">ttl_seconds</text><text x="125.8" y="224.0" font-family="ui-monospace, 'JetBrains Mono', 'DejaVu Sans Mono', Menlo, Consolas, monospace" font-size="13" fill="#d29922" text-anchor="start"> = 3600</text><text x="40.0" y="268.0" font-family="ui-monospace, 'JetBrains Mono', 'DejaVu Sans Mono', Menlo, Consolas, monospace" font-size="13" fill="#f0883e" font-weight="700" text-anchor="start">[updaters]</text><text x="40.0" y="290.0" font-family="ui-monospace, 'JetBrains Mono', 'DejaVu Sans Mono', Menlo, Consolas, monospace" font-size="13" fill="#58a6ff" text-anchor="start">disable</text><text x="94.6" y="290.0" font-family="ui-monospace, 'JetBrains Mono', 'DejaVu Sans Mono', Menlo, Consolas, monospace" font-size="13" fill="#d29922" text-anchor="start"> = []</text><text x="40.0" y="312.0" font-family="ui-monospace, 'JetBrains Mono', 'DejaVu Sans Mono', Menlo, Consolas, monospace" font-size="13" fill="#58a6ff" text-anchor="start">enable</text><text x="86.8" y="312.0" font-family="ui-monospace, 'JetBrains Mono', 'DejaVu Sans Mono', Menlo, Consolas, monospace" font-size="13" fill="#d29922" text-anchor="start"> = ["fwupd"]</text><text x="180.4" y="312.0" font-family="ui-monospace, 'JetBrains Mono', 'DejaVu Sans Mono', Menlo, Consolas, monospace" font-size="13" fill="#6e7681" text-anchor="start">  # opt-in: may prompt for admin rights</text><text x="40.0" y="334.0" font-family="ui-monospace, 'JetBrains Mono', 'DejaVu Sans Mono', Menlo, Consolas, monospace" font-size="13" fill="#58a6ff" text-anchor="start">custom</text><text x="86.8" y="334.0" font-family="ui-monospace, 'JetBrains Mono', 'DejaVu Sans Mono', Menlo, Consolas, monospace" font-size="13" fill="#3fb950" text-anchor="start"> = { texlive = ["tlmgr", "update", "--all"] }</text><g class="shine"><rect x="24" y="64" width="260" height="308" fill="url(#sh)" opacity="0.35"/><animate attributeName="opacity" values="0;0.5;0" dur="2.4s" begin="4.6s" fill="freeze"/></g><rect x="469.2" y="322" width="8" height="15" fill="#3fb950" opacity="0"><animate attributeName="opacity" values="0;1;1;0" keyTimes="0;0.08;0.5;0.58" dur="1.1s" begin="8.0" repeatCount="indefinite"/></rect>
</svg>
